<?xml version="1.0" ?><!DOCTYPE svg  PUBLIC '-//W3C//DTD SVG 1.1//EN'  'http://www.w3.org/Graphics/SVG/1.1/DTD/svg11.dtd'><svg enable-background="new 0 0 24 24" height="24px" id="Layer_1" version="1.1" viewBox="0 0 24 24" width="24px" xml:space="preserve" xmlns="http://www.w3.org/2000/svg" xmlns:xlink="http://www.w3.org/1999/xlink"><g><path d="M19.7,0.5H4.3c-2.1,0-3.8,1.7-3.8,3.8v15.4c0,2.1,1.7,3.8,3.8,3.8h15.4c2.1,0,3.8-1.7,3.8-3.8V4.3   C23.5,2.2,21.8,0.5,19.7,0.5z M11.6,13.5c0,1.6-0.6,3-1.8,4.1l-0.2,0.2c-0.7,0.5-1.4,0.9-2.1,1.1c-0.3,0.1-0.6,0.1-1,0.2   c0,0-0.1,0-0.1,0c-0.4,0-0.7-0.2-0.8-0.6c0-0.1,0-0.1,0-0.2l0-1.9c0-0.1,0-0.1,0-0.1c0-0.2,0-0.5,0.2-0.8c0.1-0.2,0.3-0.3,0.5-0.3   l0.1,0C6.7,15,6.9,15,7.1,14.9c0.4-0.2,0.6-0.5,0.8-0.9c-1.2,0-2.3,0-3.5,0c-0.1,0-0.3,0-0.5-0.1c-0.5-0.1-1-0.7-1-1.2   c0-2.1,0-4.1,0-6.2c0-0.3,0-0.8,0.4-1.2C3.7,5,3.9,4.9,4.2,4.9h6c1.2,0,1.3,0.9,1.3,1.6l0,0.2C11.6,7.7,11.6,11.5,11.6,13.5z    M21,13.5c0,1.6-0.6,3-1.8,4.1L19,17.8c-0.7,0.5-1.4,0.9-2.1,1.1c-0.3,0.1-0.6,0.1-1,0.2c0,0-0.1,0-0.1,0c-0.4,0-0.7-0.2-0.8-0.6   c0-0.1,0-0.1,0-0.2l0-1.9c0-0.1,0-0.1,0-0.1c0-0.2,0-0.5,0.2-0.8c0.1-0.2,0.3-0.3,0.5-0.3l0.1,0c0.3-0.1,0.5-0.1,0.7-0.2   c0.4-0.2,0.6-0.5,0.8-0.9c-1.2,0-2.3,0-3.5,0c-0.1,0-0.3,0-0.5-0.1c-0.5-0.1-1-0.7-1-1.2l0-6.2c0-0.3,0-0.8,0.4-1.2   c0.2-0.2,0.5-0.3,0.8-0.3h6c1.2,0,1.3,0.9,1.3,1.6l0,0.2C21,7.7,21,11.5,21,13.5z"/></g></svg>