<svg width="36" height="36" viewBox="0 0 36 36" fill="none" xmlns="http://www.w3.org/2000/svg">
<g clip-path="url(#clip0_13489_60077)">
<path d="M29.2486 2.52145L26.1453 0.373047C25.5241 1.05318 24.4808 1.18677 23.7024 0.647899L8.15234 23.1086C8.9307 23.6474 9.17293 24.671 8.75499 25.4919L11.8582 27.6403C12.4794 26.9601 13.5228 26.8265 14.3011 27.3654C15.0795 27.9043 15.3217 28.9279 14.9038 29.7487L18.0069 31.8971C18.6282 31.217 19.6715 31.0834 20.4499 31.6223L35.9999 9.16156C35.2216 8.62268 34.9794 7.59907 35.3973 6.77824L32.2941 4.62984C31.6729 5.30998 30.6295 5.44357 29.8512 4.90469C29.0729 4.36589 28.8307 3.34221 29.2486 2.52145Z" fill="#F2CC7B"/>
<path d="M19.8923 28.6738L30.5078 13.3398L21.723 7.25823L11.1075 22.5922L19.8923 28.6738Z" fill="#F25F60"/>
<path d="M18.0234 16.0383L20.6277 16.8194L22.1753 14.584L22.2372 17.3021L24.8415 18.0833L22.2755 18.9821L22.3373 21.7003L20.6896 19.5376L18.1236 20.4365L19.6712 18.201L18.0234 16.0383Z" fill="#F2F2F2"/>
<path opacity="0.1" d="M17.352 31.4469L23.2354 6.3745L21.3967 5.94306L21.5529 4.31933L21.2198 4.24121L8.1543 23.113C8.93266 23.6519 9.17488 24.6755 8.75695 25.4963L11.8602 27.6447C12.4813 26.9646 13.5248 26.831 14.3031 27.3698C15.0815 27.9087 15.3237 28.9323 14.9058 29.7532L17.352 31.4469Z" fill="black"/>
<path d="M12.084 4.17084L8.40949 3.30859C8.08064 4.16894 7.1587 4.67554 6.23711 4.45926L-0.00390625 31.0552C0.917681 31.2714 1.51815 32.1352 1.42998 33.0521L5.10445 33.9143C5.4333 33.054 6.35524 32.5474 7.27683 32.7637C8.19841 32.98 8.79888 33.8437 8.71071 34.7606L12.3852 35.6229C12.714 34.7625 13.636 34.2559 14.5576 34.4722L20.7984 7.87638C19.8769 7.66017 19.2764 6.79638 19.3646 5.87943L15.6902 5.01719C15.3613 5.87754 14.4394 6.38414 13.5178 6.16786C12.5961 5.95143 11.9958 5.08778 12.084 4.17084Z" fill="#FFD782"/>
<path d="M6.50754 9.21849C6.4617 9.21849 6.41501 9.21321 6.3684 9.20231L5.187 8.92507C4.86075 8.84857 4.65832 8.52204 4.73496 8.19579C4.81146 7.86961 5.13799 7.66711 5.46425 7.74375L6.64564 8.02099C6.97189 8.09749 7.17432 8.42402 7.09768 8.75027C7.03222 9.02977 6.78282 9.21849 6.50754 9.21849Z" fill="#FF6465"/>
<path d="M16.2743 11.5103C16.2285 11.5103 16.1819 11.5051 16.1352 11.4942L13.6954 10.9216C13.3691 10.8451 13.1667 10.5186 13.2434 10.1923C13.3199 9.86614 13.6462 9.66364 13.9726 9.74028L16.4124 10.3128C16.7387 10.3893 16.9411 10.7159 16.8645 11.0421C16.799 11.3217 16.5497 11.5103 16.2743 11.5103ZM11.3948 10.3654C11.349 10.3654 11.3024 10.3601 11.2557 10.3492L8.81591 9.77664C8.48966 9.70014 8.28723 9.3736 8.36387 9.04735C8.44037 8.7211 8.76676 8.51867 9.09315 8.59531L11.5329 9.16787C11.8592 9.24437 12.0616 9.5709 11.985 9.89715C11.9194 10.1767 11.6702 10.3654 11.3948 10.3654Z" fill="#FF6465"/>
<path d="M19.8923 12.3591C19.8465 12.3591 19.7998 12.3538 19.7532 12.3429L18.5718 12.0657C18.2455 11.9892 18.0431 11.6627 18.1197 11.3364C18.1962 11.0102 18.5228 10.8077 18.849 10.8844L20.0304 11.1616C20.3567 11.2381 20.5591 11.5646 20.4824 11.8909C20.4169 12.1705 20.1677 12.3591 19.8923 12.3591Z" fill="#FF6465"/>
<path d="M12.959 31.935L17.2207 13.7783L6.8188 11.3368L2.55707 29.4934L12.959 31.935Z" fill="#FF6465"/>
<path d="M6.5918 20.8595L9.30108 20.6323L9.9223 17.9854L10.9756 20.4919L13.6849 20.2646L11.6266 22.041L12.6799 24.5476L10.3544 23.1388L8.2961 24.9152L8.91725 22.2682L6.5918 20.8595Z" fill="white"/>
<path d="M22.4321 5.21395C22.3129 5.21395 22.1926 5.179 22.0873 5.10602L21.0896 4.41527C20.814 4.22451 20.7453 3.84651 20.9361 3.57102C21.1268 3.29547 21.5049 3.22677 21.7803 3.41753L22.7781 4.10828C23.0536 4.29904 23.1223 4.67704 22.9316 4.95252C22.8137 5.12268 22.6245 5.21395 22.4321 5.21395Z" fill="#F25F60"/>
<path d="M30.6742 10.9188C30.5551 10.9188 30.4348 10.8838 30.3294 10.8109L28.269 9.38441C27.9934 9.19365 27.9247 8.81565 28.1155 8.54024C28.3062 8.26468 28.6842 8.19599 28.9597 8.38675L31.0202 9.81325C31.2957 10.004 31.3644 10.382 31.1737 10.6574C31.0558 10.8275 30.8666 10.9188 30.6742 10.9188ZM26.5534 8.06584C26.4342 8.06584 26.3139 8.03082 26.2086 7.95791L24.1482 6.53141C23.8726 6.34065 23.8039 5.96265 23.9947 5.68723C24.1854 5.41168 24.5635 5.34298 24.8389 5.53374L26.8994 6.96024C27.1749 7.151 27.2436 7.529 27.0529 7.80449C26.935 7.97457 26.7458 8.06584 26.5534 8.06584Z" fill="#F25F60"/>
<path d="M33.731 13.0343C33.6118 13.0343 33.4915 12.9992 33.3861 12.9263L32.3884 12.2356C32.1128 12.0448 32.0442 11.6668 32.2349 11.3913C32.4257 11.1158 32.8037 11.0471 33.0792 11.2378L34.0769 11.9286C34.3524 12.1194 34.4211 12.4974 34.2304 12.7728C34.1126 12.9429 33.9233 13.0343 33.731 13.0343Z" fill="#F25F60"/>
</g>
<defs>
<clipPath id="clip0_13489_60077">
<rect width="36" height="36" fill="white"/>
</clipPath>
</defs>
</svg>
